<?xml version="1.0" encoding="UTF-8" standalone="no"?>
<!-- Created with Inkscape (http://www.inkscape.org/) -->

<svg
   width="45"
   height="20"
   viewBox="0 0 11.90625 5.2916667"
   version="1.1"
   id="svg1"
   xmlns="http://www.w3.org/2000/svg"
   xmlns:svg="http://www.w3.org/2000/svg">
  <defs
     id="defs1" />
  <path
     id="text2-6"
     style="font-weight:bold;font-size:4.35001px;-inkscape-font-specification:'sans-serif Bold';fill:#f25f4c;stroke-width:0.362502"
     d="M 10.174528,0.08290145 9.4502564,5.0449248 H 9.0826745 l 0.724272,-4.96202335 z m 0.130696,3.46090695 0.909424,-0.9520968 -0.909424,-1.07719 V 0.70141695 L 11.625795,2.3832232 V 2.8696959 L 10.305224,4.3569131 Z M 1.9534741,4.3920427 0.32738941,2.9307469 V 2.452753 L 1.9534741,0.80025969 V 1.5991924 L 0.83365493,2.6576075 1.9534741,3.59311 Z M 7.7265854,3.4265255 q 0,0.5135334 -0.2382214,0.8216535 -0.2347693,0.3027145 -0.6697829,0.3027145 -0.3901313,0 -0.6974028,-0.2324414 V 3.5562602 q 0.1760769,0.1189235 0.3625113,0.2216303 0.1898869,0.097301 0.3763213,0.097301 0.1933394,0 0.2727467,-0.1135179 0.08286,-0.1189234 0.08286,-0.2973088 0,-0.1459516 -0.065597,-0.2486584 Q 7.0878752,3.1129997 6.9808481,3.0265098 6.8738209,2.9346143 6.7357213,2.8319077 6.6494091,2.7670403 6.5492869,2.6805504 6.4491648,2.5886549 6.3559476,2.4589202 6.2661829,2.3237797 6.2074905,2.1345832 6.1487982,1.9453866 6.1487982,1.6805114 q 0,-0.5189391 0.2244118,-0.80543685 0.2244117,-0.29190326 0.6110905,-0.29190326 0.1933394,0 0.3659639,0.070273 0.1760773,0.0702731 0.3659636,0.20000779 L 7.5470564,1.4913148 Q 7.3778843,1.3832026 7.2432372,1.3237408 7.1085902,1.264279 6.9670381,1.264279 q -0.148457,0 -0.2278643,0.1081123 -0.079407,0.1081123 -0.079407,0.2810919 0,0.2054135 0.1173846,0.324337 0.1173847,0.1189235 0.3487015,0.2919033 0.1898869,0.140546 0.3210815,0.2919033 0.1346466,0.1513572 0.2071488,0.3567707 0.072501,0.2054134 0.072501,0.5081279 z M 5.2672337,1.213087 q -0.3003668,0 -0.4591813,0.3556183 -0.1588146,0.3556184 -0.1588146,0.9738473 0,0.6236998 0.1450047,0.9683761 0.148457,0.3392052 0.4729912,0.3392052 0.1519096,0 0.3003667,-0.05471 0.1519097,-0.05471 0.3279867,-0.1531894 v 0.6948236 q -0.162267,0.1039496 -0.3210817,0.1531895 -0.1588146,0.049239 -0.3556066,0.049239 -0.379774,0 -0.6283534,-0.2461973 Q 4.3454186,4.0416207 4.2280339,3.5929945 4.1106491,3.1388971 4.1106491,2.5370816 q 0,-0.5908737 0.1346472,-1.0449709 0.1346472,-0.4540973 0.3901315,-0.71123683 0.2589368,-0.25713942 0.6318059,-0.25713942 0.182982,0 0.3659641,0.0765947 0.1864345,0.0711237 0.3556066,0.19695786 L 5.8196323,1.4702264 Q 5.6815327,1.3662764 5.5399805,1.2896817 5.4018809,1.213087 5.2672337,1.213087 Z M 3.985653,4.4750884 H 2.1805221 V 0.53191739 H 3.985653 V 1.2167258 H 2.8437211 V 2.0837816 H 3.9065962 V 2.76859 H 2.8437211 V 3.7847573 H 3.985653 Z" />
</svg>
